<svg fill="none" height="15" viewBox="0 0 15 15" width="15" xmlns="http://www.w3.org/2000/svg"><path d="m2.60915 4.43189 4.14279-2.41663-.50388-.86378-4.14278 2.41663zm-.60915 5.06811v-4h-1v4zm6.24806-7.48474 4.14284 2.41663.5038-.86378-4.14276-2.41663zm4.75194 3.48474v4h1v-4zm-.2519 4.8598-4.50004 2.625.50388.8638 4.49996-2.625zm-5.99616 2.625-4.14279-2.4166-.50387.8638 4.14278 2.4166zm-.16797-11.01215-5 7.5.83206.55475 5-7.50005zm6.83203 7.5-4.99997-7.5-.83206.5547 5.00003 7.50005zm-10.916 1.52735h10v-1h-10zm5-9c-.27614 0-.5-.22386-.5-.5h-1c0 .82843.67157 1.5 1.5 1.5zm.5-.5c0 .27614-.22386.5-.5.5v1c.82843 0 1.5-.67157 1.5-1.5zm-.5-.5c.27614 0 .5.22386.5.5h1c0-.828427-.67157-1.5-1.5-1.5zm0-1c-.82843 0-1.5.671573-1.5 1.5h1c0-.27614.22386-.5.5-.5zm6 5c-.2761 0-.5-.22386-.5-.5h-1c0 .82843.6716 1.5 1.5 1.5zm.5-.5c0 .27614-.2239.5-.5.5v1c.8284 0 1.5-.67157 1.5-1.5zm-.5-.5c.2761 0 .5.22386.5.5h1c0-.82843-.6716-1.5-1.5-1.5zm0-1c-.8284 0-1.5.67157-1.5 1.5h1c0-.27614.2239-.5.5-.5zm0 8c-.2761 0-.5-.2239-.5-.5h-1c0 .8284.6716 1.5 1.5 1.5zm.5-.5c0 .2761-.2239.5-.5.5v1c.8284 0 1.5-.6716 1.5-1.5zm-.5-.5c.2761 0 .5.2239.5.5h1c0-.82843-.6716-1.5-1.5-1.5zm0-1c-.8284 0-1.5.67157-1.5 1.5h1c0-.2761.2239-.5.5-.5zm-6 5c-.27614 0-.5-.2239-.5-.5h-1c0 .8284.67157 1.5 1.5 1.5zm.5-.5c0 .2761-.22386.5-.5.5v1c.82843 0 1.5-.6716 1.5-1.5zm-.5-.5c.27614 0 .5.2239.5.5h1c0-.8284-.67157-1.5-1.5-1.5zm0-1c-.82843 0-1.5.6716-1.5 1.5h1c0-.2761.22386-.5.5-.5zm-6-1c-.27614 0-.5-.2239-.5-.5h-1c0 .8284.671573 1.5 1.5 1.5zm.5-.5c0 .2761-.22386.5-.5.5v1c.82843 0 1.5-.6716 1.5-1.5zm-.5-.5c.27614 0 .5.2239.5.5h1c0-.82843-.67157-1.5-1.5-1.5zm0-1c-.828427 0-1.5.67157-1.5 1.5h1c0-.2761.22386-.5.5-.5zm0-4c-.27614 0-.5-.22386-.5-.5h-1c0 .82843.671573 1.5 1.5 1.5zm.5-.5c0 .27614-.22386.5-.5.5v1c.82843 0 1.5-.67157 1.5-1.5zm-.5-.5c.27614 0 .5.22386.5.5h1c0-.82843-.67157-1.5-1.5-1.5zm0-1c-.828427 0-1.5.67157-1.5 1.5h1c0-.27614.22386-.5.5-.5z" fill="#000"/></svg>